# xmcd
#
# Track frame offsets: 
#        150
#        22355
#        43653
#        77311
#        89818
#        110762
#        129671
#        135832
#        142413
#        157289
#        177455
#        197195
#        202582
#
# Disc length: 3012 seconds
#
# Revision: 6
# Processed by: cddbd v1.5.2PL0 Copyright (c) Steve Scherf et al.
# Submitted via: ExactAudioCopy v0.95a5
#
DISCID=c30bc20d
DTITLE=Dio - Dio at Donington UK: Live 1983 and 1987 Disc 2
DYEAR=1987
DGENRE=Rock
TTITLE0=Dream Evil
TTITLE1=Neon Knights
TTITLE2=Naked in the Rain 
TTITLE3=Rock and Roll Children 
TTITLE4=Long Live Rock 'n' Roll
TTITLE5=The Last in Line 
TTITLE6=Children of the Sea
TTITLE7=Holy Diver
TTITLE8=Heaven and Hell
TTITLE9=Man on the Silver Mountain
TTITLE10=All the Fools Sailed Away
TTITLE11=The Last in Line (Reprise)
TTITLE12=Rainbow in the Dark
EXTD=YEAR: 1987
EXTT0=
EXTT1=
EXTT2=
EXTT3=
EXTT4=
EXTT5=
EXTT6=
EXTT7=
EXTT8=
EXTT9=
EXTT10=
EXTT11=
EXTT12=
PLAYORDER=
